<?xml version="1.0" encoding="utf-8"?>
<!-- Generator: Adobe Illustrator 22.0.0, SVG Export Plug-In . SVG Version: 6.00 Build 0)  -->
<svg version="1.1" id="Capa_1" xmlns="http://www.w3.org/2000/svg" xmlns:xlink="http://www.w3.org/1999/xlink" x="0px" y="0px"
	 viewBox="0 0 294.8 294.8" style="enable-background:new 0 0 294.8 294.8;" xml:space="preserve">
<style type="text/css">
	.st0{fill:#FFFFFF;}
</style>
<g>
	<path class="st0" d="M147.4,0C66.1,0,0,66.1,0,147.4s66.1,147.4,147.4,147.4c45.7,0,88.1-20.7,116.2-56.7c2-2.6,1.6-6.4-1-8.4
		c-2.6-2-6.4-1.6-8.4,1c-25.9,33.1-64.8,52.1-106.8,52.1C72.8,282.8,12,222.1,12,147.4S72.8,12,147.4,12s135.4,60.8,135.4,135.4
		c0,3.3,2.7,6,6,6s6-2.7,6-6C294.8,66.1,228.7,0,147.4,0z"/>
	<path class="st0" d="M145,238.9c0.4,0.1,0.8,0.1,1.2,0.1c2.4,0,4.6-1.4,5.5-3.7l63.2-152.7c0.9-2.2,0.4-4.8-1.3-6.5
		s-4.3-2.2-6.5-1.3L54.4,138c-2.6,1.1-4.1,3.9-3.6,6.7c0.6,2.8,3,4.8,5.9,4.8h83.4V233C140.2,235.9,142.2,238.3,145,238.9z
		 M86.9,137.6l111.4-46.2l-46.1,111.4v-59.3c0-3.3-2.7-6-6-6L86.9,137.6L86.9,137.6z"/>
</g>
</svg>
