<?xml version="1.0" encoding="utf-8"?>
<!-- Generator: Adobe Illustrator 22.0.0, SVG Export Plug-In . SVG Version: 6.00 Build 0)  -->
<svg version="1.1" id="Capa_1" xmlns="http://www.w3.org/2000/svg" xmlns:xlink="http://www.w3.org/1999/xlink" x="0px" y="0px"
	 viewBox="0 0 201.6 201.6" style="enable-background:new 0 0 201.6 201.6;" xml:space="preserve">
<style type="text/css">
	.st0{fill:#FFFFFF;}
</style>
<g>
	<g>
		<path class="st0" d="M151.6,31.9H54c-10.2,0-18.6,8.3-18.6,18.6v97.6c0,10.2,8.3,18.6,18.6,18.6h97.6c10.2,0,18.6-8.3,18.6-18.6
			V50.5C170.2,40.2,161.8,31.9,151.6,31.9z M151.6,160.7H54c-6.9,0-12.6-5.6-12.6-12.6V50.5c0-6.9,5.6-12.6,12.6-12.6h97.6
			c6.9,0,12.6,5.7,12.6,12.6v97.6C164.2,155,158.5,160.7,151.6,160.7z"/>
		<path class="st0" d="M180.6,61h18c1.7,0,3-1.3,3-3c0-1.7-1.3-3-3-3h-18c-1.7,0-3,1.3-3,3C177.6,59.7,178.9,61,180.6,61z"/>
		<path class="st0" d="M198.5,71.4h-18c-1.7,0-3,1.3-3,3s1.3,3,3,3h18c1.7,0,3-1.3,3-3C201.6,72.7,200.2,71.4,198.5,71.4z"/>
		<path class="st0" d="M198.5,88.1h-18c-1.7,0-3,1.3-3,3c0,1.7,1.3,3,3,3h18c1.7,0,3-1.3,3-3C201.6,89.4,200.2,88.1,198.5,88.1z"/>
		<path class="st0" d="M198.5,104.5h-18c-1.7,0-3,1.4-3,3c0,1.7,1.3,3,3,3h18c1.7,0,3-1.3,3-3C201.6,105.8,200.2,104.5,198.5,104.5z
			"/>
		<path class="st0" d="M198.5,119.6h-18c-1.7,0-3,1.3-3,3c0,1.7,1.3,3,3,3h18c1.7,0,3-1.3,3-3C201.6,120.9,200.2,119.6,198.5,119.6z
			"/>
		<path class="st0" d="M198.5,135.9h-18c-1.7,0-3,1.4-3,3c0,1.7,1.3,3,3,3h18c1.7,0,3-1.4,3-3C201.6,137.3,200.2,135.9,198.5,135.9z
			"/>
		<path class="st0" d="M21,55H3c-1.7,0-3,1.3-3,3c0,1.7,1.3,3,3,3h18c1.7,0,3-1.3,3-3C24,56.4,22.7,55,21,55z"/>
		<path class="st0" d="M21,71.4H3c-1.7,0-3,1.3-3,3s1.3,3,3,3h18c1.7,0,3-1.3,3-3C24,72.7,22.7,71.4,21,71.4z"/>
		<path class="st0" d="M21,88.1H3c-1.7,0-3,1.3-3,3c0,1.7,1.3,3,3,3h18c1.7,0,3-1.3,3-3C24,89.4,22.7,88.1,21,88.1z"/>
		<path class="st0" d="M21,104.5H3c-1.7,0-3,1.4-3,3c0,1.7,1.3,3,3,3h18c1.7,0,3-1.3,3-3C24,105.8,22.7,104.5,21,104.5z"/>
		<path class="st0" d="M21,119.6H3c-1.7,0-3,1.3-3,3c0,1.7,1.3,3,3,3h18c1.7,0,3-1.3,3-3C24,120.9,22.7,119.6,21,119.6z"/>
		<path class="st0" d="M21,135.9H3c-1.7,0-3,1.4-3,3c0,1.7,1.3,3,3,3h18c1.7,0,3-1.4,3-3C24,137.3,22.7,135.9,21,135.9z"/>
		<path class="st0" d="M143.2,177.6c-1.7,0-3,1.4-3,3v18c0,1.7,1.3,3,3,3s3-1.4,3-3v-18C146.2,178.9,144.9,177.6,143.2,177.6z"/>
		<path class="st0" d="M126.9,177.6c-1.7,0-3,1.4-3,3v18c0,1.7,1.3,3,3,3c1.7,0,3-1.4,3-3v-18C129.9,178.9,128.5,177.6,126.9,177.6z
			"/>
		<path class="st0" d="M110.2,177.6c-1.7,0-3,1.4-3,3v18c0,1.7,1.3,3,3,3c1.7,0,3-1.4,3-3v-18C113.2,178.9,111.8,177.6,110.2,177.6z
			"/>
		<path class="st0" d="M93.8,177.6c-1.7,0-3,1.4-3,3v18c0,1.7,1.3,3,3,3c1.7,0,3-1.4,3-3v-18C96.8,178.9,95.5,177.6,93.8,177.6z"/>
		<path class="st0" d="M78.7,177.6c-1.7,0-3,1.4-3,3v18c0,1.7,1.3,3,3,3c1.7,0,3-1.4,3-3v-18C81.7,178.9,80.3,177.6,78.7,177.6z"/>
		<path class="st0" d="M62.3,177.6c-1.7,0-3,1.4-3,3v18c0,1.7,1.3,3,3,3c1.7,0,3-1.4,3-3v-18C65.3,178.9,64,177.6,62.3,177.6z"/>
		<path class="st0" d="M143.2,24c1.7,0,3-1.3,3-3V3c0-1.7-1.4-3-3-3s-3,1.3-3,3v18C140.2,22.7,141.6,24,143.2,24z"/>
		<path class="st0" d="M126.9,24c1.7,0,3-1.3,3-3V3c0-1.7-1.3-3-3-3c-1.7,0-3,1.3-3,3v18C123.9,22.7,125.2,24,126.9,24z"/>
		<path class="st0" d="M110.2,24c1.7,0,3-1.3,3-3V3c0-1.7-1.3-3-3-3c-1.7,0-3,1.3-3,3v18C107.2,22.7,108.5,24,110.2,24z"/>
		<path class="st0" d="M93.8,24c1.7,0,3-1.3,3-3V3c0-1.7-1.3-3-3-3c-1.7,0-3,1.3-3,3v18C90.8,22.7,92.1,24,93.8,24z"/>
		<path class="st0" d="M78.7,24c1.7,0,3-1.3,3-3V3c0-1.7-1.3-3-3-3c-1.7,0-3,1.3-3,3v18C75.7,22.7,77,24,78.7,24z"/>
		<path class="st0" d="M62.3,24c1.7,0,3-1.3,3-3V3c0-1.7-1.3-3-3-3c-1.7,0-3,1.3-3,3v18C59.3,22.7,60.7,24,62.3,24z"/>
		<path class="st0" d="M63.4,49.7c-3.3,0-5.9,2.7-5.9,5.9s2.7,5.9,5.9,5.9c3.3,0,5.9-2.7,5.9-5.9C69.3,52.3,66.7,49.7,63.4,49.7z"/>
		<path class="st0" d="M72,128.7h62.2V66H72C72,66,72,128.7,72,128.7z M127.7,72.5v49.8H78.5V72.5H127.7z"/>
	</g>
</g>
</svg>
