<?xml version="1.0" encoding="utf-8"?>
<!-- Generator: Adobe Illustrator 22.0.0, SVG Export Plug-In . SVG Version: 6.00 Build 0)  -->
<svg version="1.1" id="Layer_1" xmlns="http://www.w3.org/2000/svg" xmlns:xlink="http://www.w3.org/1999/xlink" x="0px" y="0px"
	 viewBox="0 0 469.3 469.3" style="enable-background:new 0 0 469.3 469.3;" xml:space="preserve">
<style type="text/css">
	.st0{fill:#FFFFFF;}
</style>
<g>
	<g>
		<g>
			<path class="st0" d="M459.9,276L193.3,9.4c-6-6-14.3-9.4-22.6-9.4c-8.3,0-16.6,3.3-22.6,9.4L9.4,148c-6.1,6-9.4,14.1-9.4,22.6
				s3.3,16.6,9.4,22.6L276,459.9c6,6.1,14.1,9.4,22.6,9.4s16.6-3.3,22.6-9.4l138.7-138.7c6.1-6,9.4-14.1,9.4-22.6
				S466,282.1,459.9,276z M24.4,178.2c-2-2-3.1-4.7-3.1-7.5s1.1-5.5,3.1-7.5L163.1,24.4c2-2,4.7-3.1,7.5-3.1s5.5,1.1,7.5,3.1
				l232.5,232.5L256.9,410.7L24.4,178.2z M444.9,306.2L306.2,444.9c-4,4-11.1,4-15.1,0L272,425.8L425.8,272l19.1,19.1l0,0
				c2,2,3.1,4.7,3.1,7.5S446.9,304.2,444.9,306.2z"/>
			<path class="st0" d="M365.8,344.5l-21.3,21.3c-4.2,4.2-4.2,10.9,0,15.1c2.1,2.1,4.8,3.1,7.5,3.1s5.5-1,7.5-3.1l21.3-21.3
				c4.2-4.2,4.2-10.9,0-15.1C376.7,340.3,370,340.3,365.8,344.5z"/>
			<path class="st0" d="M109.8,88.5l-21.3,21.3c-4.2,4.2-4.2,10.9,0,15.1c2.1,2.1,4.8,3.1,7.5,3.1c2.7,0,5.5-1,7.5-3.1l21.3-21.3
				c4.2-4.2,4.2-10.9,0-15.1C120.7,84.3,114,84.3,109.8,88.5z"/>
			<circle class="st0" cx="170.7" cy="42.7" r="10.7"/>
			<path class="st0" d="M146.1,404.3c-17.6-8.8-33.5-20.2-47.2-33.9c-13.7-13.7-25.1-29.5-33.9-47.2c-2.6-5.3-9.1-7.4-14.3-4.8
				c-5.3,2.6-7.4,9-4.8,14.3c9.9,19.7,22.6,37.4,37.9,52.7c15.3,15.3,33,28,52.7,37.9c1.5,0.8,3.2,1.1,4.8,1.1
				c3.9,0,7.7-2.2,9.6-5.9C153.5,413.4,151.3,406.9,146.1,404.3z"/>
			<path class="st0" d="M127,442.4c-21.8-10.9-41.4-25-58.3-41.8c-16.9-16.9-31-36.5-41.8-58.3c-2.6-5.3-9.1-7.4-14.3-4.8
				c-5.3,2.6-7.4,9-4.8,14.3c11.9,23.8,27.3,45.3,45.8,63.8c18.5,18.5,40,33.9,63.8,45.8c1.5,0.8,3.2,1.1,4.8,1.1
				c3.9,0,7.7-2.2,9.6-5.9C134.4,451.5,132.3,445.1,127,442.4z"/>
			<path class="st0" d="M342.3,26.9c21.8,10.9,41.4,25,58.3,41.8c16.9,16.9,31,36.5,41.8,58.3c1.9,3.7,5.6,5.9,9.6,5.9
				c1.6,0,3.2-0.4,4.8-1.1c5.3-2.6,7.4-9,4.8-14.3c-11.9-23.8-27.3-45.3-45.8-63.8c-18.5-18.5-40-33.9-63.8-45.8
				c-5.3-2.6-11.7-0.5-14.3,4.8C334.9,17.8,337.1,24.2,342.3,26.9z"/>
			<path class="st0" d="M323.3,65c17.6,8.8,33.5,20.2,47.2,33.9c13.7,13.7,25.1,29.5,33.9,47.2c1.9,3.7,5.6,5.9,9.6,5.9
				c1.6,0,3.2-0.4,4.8-1.1c5.3-2.6,7.4-9,4.8-14.3c-9.9-19.7-22.6-37.4-37.9-52.7c-15.3-15.3-33-28-52.7-37.9
				c-5.3-2.6-11.7-0.5-14.3,4.8C315.9,56,318,62.4,323.3,65z"/>
		</g>
	</g>
</g>
</svg>
